#!OML:ASF E:/inclinewalkrobotboard/Project1/Captureday1/Session1/subject1.ASF
:FULLY-SPECIFIED
:DEGREES
226
root 0 0 0 -1.7135065280834545 -3.0287993596927776 -3.762016905647983
lowerback 10.04145134724221 1.0977565431998524 1.6738343698455078
upperback 0.05714302157251844 1.718733867437841 1.2451861016222279
thorax -5.520499416708859 0.8078984540513204 0.1029675501288175
lowerneck -14.111651893623256 -2.9578141556832187 -1.0555423998091367
upperneck 16.566256466044184 -4.010915124091466 1.3815373462046925
head 7.680722618088787 -1.8833763946720627 0.21188806390627624
rclavicle -1.8492411303884964E-16 -8.881688839163548E-17
rhumerus -19.75985849217161 -7.414648257685325 -67.51490164514169
rradius 60.2101989520588
rwrist -7.978165569097257
rhand -13.403599923982217 -8.57802812140785
rfingers 7.125019999999865
rthumb 12.729173948439623 -37.82368552549046
lclavicle -8.173449960553611E-16 -3.8785350394376075E-16
lhumerus -39.695600554935005 0.2588590756260861 83.29043694293745
lradius 38.36397291682417
lwrist 2.665032160414232
lhand -19.354682798518574 0.6124829588130076
lfingers 7.125019999999877
lthumb 6.8615194975074045 30.118900936910364
rfemur -9.053943689207948 2.0322569672584083 14.171401892047925
rtibia 27.79221129916153
rfoot -1.3998763812236876 -3.267219239654131
rtoes 3.378184358508974
lfemur 0.48643662330098447 -4.236636641400276 -19.995806367534474
ltibia 19.0448770584188
lfoot -18.52631896934377 4.7257209709236925
ltoes -23.844388493811685
227
root 0 0 0 -1.8807411810194772 -1.4048962151484816 -1.1684860372563781
lowerback 10.036990140960663 0.03990153268383201 -1.099768635752964
upperback 0.14758255412493576 -0.00983492033976674 1.1910830512834256
thorax -5.444397648776686 0.01814793579565266 1.8555476410209073
lowerneck -14.131448580181964 -2.6796868455780607 -1.2608851965238033
upperneck 16.701754929794852 -3.5307128979357607 1.217857506082059
head 7.702931454796486 -1.6898857948231774 0.24479160229293875
rclavicle -1.9745211629588207E-16 -9.584380615055759E-17
rhumerus -19.90483084054736 -7.584397854657586 -67.67333901238246
rradius 59.70474686816867
rwrist -7.7955611489065895
rhand -13.473375085980486 -8.09151222073377
rfingers 7.125019999999868
rthumb 12.660971215306702 -37.346682407990386
lclavicle -7.856818552891625E-16 -3.730764491887717E-16
lhumerus -39.46234445217941 0.2308263834228899 83.27098871873305
lradius 38.083255224128806
lwrist 2.7673701870612013
lhand -19.585782285213064 1.3148504205733929
lfingers 7.125019999999881
lthumb 6.6436277331158315 30.829226075588622
rfemur -9.58509851067574 1.8985391881971914 13.936670479775383
rtibia 28.420064081113793
rfoot -1.006045602165146 -3.3037687592733933
rtoes 3.5178405834724447
lfemur 1.0722264844748493 -4.250478532428112 -20.447585436079844
ltibia 18.75730165757811
lfoot -18.469268715290838 4.498601929139706
ltoes -23.026677779560757
228
root 0 0 0 -2.08687642002678 -0.48640460561494603 0.4246524248083099
lowerback 10.084707485381763 -0.6145557585126349 -2.690930210668975
upperback 0.24086787703603113 -1.0657013051518747 1.2143906768813881
thorax -5.369480115762338 -0.46422841829037387 2.928234150856124
lowerneck -14.49273540613239 -2.541254299726199 -1.4958730707212273
upperneck 17.116119747704882 -3.251846169862242 1.0408622341245317
head 7.897365623457725 -1.583512735937846 0.2464967808140914
rclavicle -2.0410303588640637E-16 -1.0453972666731415E-16
rhumerus -20.01867018266801 -7.707097470008551 -67.78658152554085
rradius 59.3441858606041
rwrist -7.658841039197284
rhand -13.522093767849464 -7.747701992061964
rfingers 7.1250199999998705
rthumb 12.613799489313774 -37.00930712364473
lclavicle -7.552032746996243E-16 -3.689572042428775E-16
lhumerus -39.33489707702862 0.20631953439559764 83.26325376246854
lradius 37.95270175007195
lwrist 2.8230026945983835
lhand -19.701785856835436 1.665908858708402
lfingers 7.125019999999883
lthumb 6.534472068325504 31.18601998356457
rfemur -9.995158925102013 1.7079499385571217 13.55869568977819
rtibia 29.112698213570567
rfoot -0.4011273547819203 -3.245657016593036
rtoes 3.7679808835008575
lfemur 1.3186176483476597 -4.197860403972749 -20.754919751427675
ltibia 18.941774916348145
lfoot -18.180480417447637 4.157205698230648
ltoes -22.107598878394384
229
root 0 0 0 -2.1839366391507813 -0.3197488710300216 0.7765456198784872
lowerback 10.129302183873177 -0.7646468000611739 -2.9849559861400947
upperback 0.28363592399564 -1.3016380187204883 1.2510169422059865
thorax -5.336979716832246 -0.5705288374866996 3.1651701721564844
lowerneck -14.757986554082098 -2.52812165193375 -1.6069569119240417
upperneck 17.403083276115034 -3.1990833739271762 0.9614637947321487
head 8.032275851569525 -1.5664710701161497 0.2368807027501778
rclavicle -1.9422479424054083E-16 -1.0523331870222815E-16
rhumerus -19.96171244391484 -7.629599170227082 -67.70727516239856
rradius 59.59110942286853
rwrist -7.73737355104535
rhand -13.48506409376083 -7.991291134813427
rfingers 7.125019999999869
rthumb 12.649420293028703 -37.24884029320734
lclavicle -7.403189773576841E-16 -3.71503374469282E-16
lhumerus -39.3723994760122 0.1891538154337947 83.26882570017953
lradius 38.049616461358426
lwrist 2.810375062196604
lhand -19.647933249663538 1.4970518367222851
lfingers 7.125019999999881
lthumb 6.585785493908009 31.013295181407898
rfemur -10.31086420963933 1.6596817502062202 13.596405834598919
rtibia 29.772968423688802
rfoot -0.16398314111855772 -3.268276348452308
rtoes 3.97731980961484
lfemur 0.8594426764247984 -4.002431993808688 -20.74037591831959
ltibia 20.163809113786847
lfoot -17.400885009358035 3.5689766968221925
ltoes -21.052648885876923
230
root 0 0 0 -2.2416628301029227 -0.2998201124585531 0.8586090914185314
lowerback 10.157582195697724 -0.8082682928349549 -3.018624276596171
upperback 0.30887131217198455 -1.364960373050649 1.2825294396557327
thorax -5.319294675476264 -0.5981024858083651 3.225290648414722
lowerneck -14.946024449293278 -2.5337272841092457 -1.6708961837462868
upperneck 17.621679297667082 -3.186983083369199 0.9105796735546363
head 8.125001067349451 -1.565247022124301 0.22622707320675076
rclavicle -1.8563878289701078E-16 -1.023639966443281E-16
rhumerus -19.889983632422158 -7.543885164139682 -67.61918771086684
rradius 59.86063911151028
rwrist -7.829712513957116
rhand -13.446437778555325 -8.251911677284237
rfingers 7.125019999999868
rthumb 12.686550532517549 -37.503224207930344
lclavicle -7.348484370853932E-16 -3.69019487426393E-16
lhumerus -39.364635795191 0.18140958380526084 83.26777347271397
lradius 38.055910348015765
lwrist 2.8160882012457797
lhand -19.652336767000854 1.5080612633084787
lfingers 7.125019999999881
lthumb 6.5820086464532 31.023763479346922
rfemur -10.631495706087545 1.7334213619894254 14.064979487995654
rtibia 30.634539185637145
rfoot -0.23190059393112672 -3.385225978562152
rtoes 4.173010289390707
lfemur -0.14811782683002228 -3.7277181315515318 -20.464279025843283
ltibia 21.98761377687486
lfoot -16.325941902833776 2.877915949483783
ltoes -19.971449585922315
231
root 0 0 0 -2.28009293845533 -0.3241697112526136 0.851114892315247
lowerback 10.174678390971748 -0.816368757774159 -2.9735136247699248
upperback 0.32532914790964734 -1.3713016600575458 1.308413380283958
thorax -5.307672414676279 -0.6000825280153449 3.227610850463596
lowerneck -15.084257930473871 -2.5424618043292706 -1.7110242830776177
upperneck 17.792294274494534 -3.18583290512236 0.873340356016221
head 8.191756830784229 -1.5680054137967079 0.21624910518545726
rclavicle -1.8254661223350533E-16 -1.0049587989265754E-16
rhumerus -19.853022437135454 -7.503934585356097 -67.57503878133579
rradius 59.98999846438344
rwrist -7.875831037408379
rhand -13.428397066478862 -8.373391188745902
rfingers 7.125019999999867
rthumb 12.703728788612162 -37.62145094069868
lclavicle -7.322735246050872E-16 -3.648682287984836E-16
lhumerus -39.27868267520384 0.17617607273616218 83.25899833606138
lradius 37.939361937339534
lwrist 2.8541552293781933
lhand -19.743126232790615 1.7850036480628297
lfingers 7.125019999999883
lthumb 6.49598678489462 31.305120106060613
rfemur -10.92151437747603 1.882249543700324 14.759478424788497
rtibia 31.483617560885698
rfoot -0.514227354783507 -3.5573204350855745
rtoes 4.315712251660898
lfemur -1.5837704018695167 -3.418323528667989 -19.945911445895607
ltibia 24.122954699726247
lfoot -15.131559336714346 2.2143620672844886
ltoes -19.065377963935436
